# xmcd
#
# Track frame offsets: 
#        150
#        12503
#        25715
#        36893
#        47828
#        62213
#        79385
#        92018
#        102975
#        115208
#        129458
#        144030
#
# Disc length: 2072 seconds
#
# Revision: 4
# Processed by: cddbd v1.5.2PL0 Copyright (c) Steve Scherf et al.
# Submitted via: ExactAudioCopyFreeDBPlugin 1.0
#
DISCID=9b08160c
DTITLE=Roy Orbison - The Heart of Roy Orbison: Country Orbison (Disk 2
DTITLE=)
DYEAR=1993
DGENRE=Country
TTITLE0=I Can't Stop Loving You
TTITLE1=Lonely Wine
TTITLE2=No One Will Ever Know
TTITLE3=All I Have to Do Is Dream
TTITLE4=Distant Dreams
TTITLE5=Born to Love Me
TTITLE6=Almost
TTITLE7=Love Hurts
TTITLE8=Here Comes that Song Again
TTITLE9=(I'd Be A) Legend In My Time
TTITLE10=Something You Can't Take Away
TTITLE11=Dream Baby (How Long Must I Dream)
EXTD=
EXTT0=
EXTT1=
EXTT2=
EXTT3=
EXTT4=
EXTT5=
EXTT6=
EXTT7=
EXTT8=
EXTT9=
EXTT10=
EXTT11=
PLAYORDER=
